# xmcd
#
# Track frame offsets:
#	150
#	17257
#	36569
#	54613
#	68517
#	86586
#	108770
#	127284
#	141151
#	154303
#
# Disc length: 2320 seconds
#
# Revision: 0
# Processed by: cddbd v1.5PL3 Copyright (c) Steve Scherf et al.
# Submitted via: dBpowerAMP V4.0
#
DISCID=85090e0a
DTITLE=Various Artist - American Roots Songbook - Louisiana
DYEAR=1900
DGENRE=Blues
TTITLE0=Keith Frank - I Got Loaded
TTITLE1=Lil' Band Of Gold - Cajun Twist
TTITLE2=Anders Osborne - Ho-Di-Ko-Di-Ya-La-Ma-La
TTITLE3=Mem Shannon - Born In This Time
TTITLE4=Wayne Troups - Lacassine Special
TTITLE5=Rebirth Brass Band - Glory, Glory/Jesus On The Mainline
TTITLE6=Duke Robillard - Jumpin' Rockin' Rhythm
TTITLE7=Warren Storm and Lil' Band Of Gold - Please Mr. Sandman
TTITLE8=Leo Soileau - Basile
TTITLE9=Bluesiana All-Stars - Blue Monk
EXTD=
EXTT0=
EXTT1=
EXTT2=
EXTT3=
EXTT4=
EXTT5=
EXTT6=
EXTT7=
EXTT8=
EXTT9=
PLAYORDER=
